<mxfile host="Electron" agent="Mozilla/5.0 (Windows NT 10.0; Win64; x64) AppleWebKit/537.36 (KHTML, like Gecko) draw.io/26.0.4 Chrome/128.0.6613.186 Electron/32.2.5 Safari/537.36" version="26.0.4">
  <diagram id="C5RBs43oDa-KdzZeNtuy" name="Page-1">
    <mxGraphModel dx="875" dy="518" grid="1" gridSize="10" guides="1" tooltips="1" connect="1" arrows="1" fold="1" page="1" pageScale="1" pageWidth="827" pageHeight="1169" math="0" shadow="0">
      <root>
        <mxCell id="WIyWlLk6GJQsqaUBKTNV-0" />
        <mxCell id="WIyWlLk6GJQsqaUBKTNV-1" parent="WIyWlLk6GJQsqaUBKTNV-0" />
        <mxCell id="s7BcbKGahoT11SLp1yV3-0" value="C&amp;nbsp;&lt;code data-end=&quot;1417&quot; data-start=&quot;1410&quot;&gt;Titel&lt;/code&gt;" style="swimlane;fontStyle=1;align=center;verticalAlign=top;childLayout=stackLayout;horizontal=1;startSize=26;horizontalStack=0;resizeParent=1;resizeParentMax=0;resizeLast=0;collapsible=1;marginBottom=0;whiteSpace=wrap;html=1;" vertex="1" parent="WIyWlLk6GJQsqaUBKTNV-1">
          <mxGeometry x="40" y="210" width="180" height="182" as="geometry" />
        </mxCell>
        <mxCell id="s7BcbKGahoT11SLp1yV3-1" value="FK : CDNr&amp;nbsp;(&amp;nbsp;CD)&lt;div&gt;FK :&amp;nbsp;&lt;span style=&quot;background-color: transparent; color: light-dark(rgb(0, 0, 0), rgb(255, 255, 255));&quot;&gt;IntNr (&lt;/span&gt;&lt;span style=&quot;background-color: transparent; color: light-dark(rgb(0, 0, 0), rgb(255, 255, 255));&quot;&gt;Interpreten)&lt;/span&gt;&lt;/div&gt;" style="text;strokeColor=none;fillColor=none;align=left;verticalAlign=top;spacingLeft=4;spacingRight=4;overflow=hidden;rotatable=0;points=[[0,0.5],[1,0.5]];portConstraint=eastwest;whiteSpace=wrap;html=1;" vertex="1" parent="s7BcbKGahoT11SLp1yV3-0">
          <mxGeometry y="26" width="180" height="38" as="geometry" />
        </mxCell>
        <mxCell id="s7BcbKGahoT11SLp1yV3-2" value="" style="line;strokeWidth=1;fillColor=none;align=left;verticalAlign=middle;spacingTop=-1;spacingLeft=3;spacingRight=3;rotatable=0;labelPosition=right;points=[];portConstraint=eastwest;strokeColor=inherit;" vertex="1" parent="s7BcbKGahoT11SLp1yV3-0">
          <mxGeometry y="64" width="180" height="8" as="geometry" />
        </mxCell>
        <mxCell id="s7BcbKGahoT11SLp1yV3-3" value="&lt;div&gt;CDNr :&amp;nbsp;&lt;span style=&quot;font-family: monospace; background-color: transparent; color: light-dark(rgb(0, 0, 0), rgb(255, 255, 255));&quot;&gt;INT&amp;nbsp;&lt;/span&gt;&lt;font style=&quot;font-size: 8px; background-color: rgb(204, 204, 255);&quot;&gt;&lt;span style=&quot;color: light-dark(rgb(0, 0, 0), rgb(255, 255, 255));&quot;&gt;&amp;nbsp;(&lt;/span&gt;&lt;span style=&quot;color: light-dark(rgb(0, 0, 0), rgb(255, 255, 255));&quot;&gt;Composite Primary Key)&lt;/span&gt;&lt;/font&gt;&lt;/div&gt;&lt;div&gt;TitelNr:&amp;nbsp;&lt;span style=&quot;background-color: transparent; color: light-dark(rgb(0, 0, 0), rgb(255, 255, 255)); font-family: monospace;&quot;&gt;INT&lt;/span&gt;&lt;span style=&quot;background-color: transparent; color: light-dark(rgb(0, 0, 0), rgb(255, 255, 255));&quot;&gt;&amp;nbsp;&lt;/span&gt;&lt;span style=&quot;background-color: transparent; color: light-dark(rgb(0, 0, 0), rgb(255, 255, 255)); font-size: 8px;&quot;&gt;&amp;nbsp;&lt;/span&gt;&lt;span style=&quot;background-color: rgb(204, 204, 255);&quot;&gt;&lt;span style=&quot;color: light-dark(rgb(0, 0, 0), rgb(255, 255, 255)); font-size: 8px;&quot;&gt;(&lt;/span&gt;&lt;span style=&quot;color: light-dark(rgb(0, 0, 0), rgb(255, 255, 255)); font-size: 8px;&quot;&gt;Composite Primary Key)&lt;/span&gt;&lt;/span&gt;&lt;br&gt;&lt;/div&gt;&lt;div&gt;Titel :&amp;nbsp;&lt;span style=&quot;background-color: transparent; color: light-dark(rgb(0, 0, 0), rgb(255, 255, 255));&quot;&gt;&amp;nbsp;&lt;/span&gt;&lt;span style=&quot;background-color: transparent; color: light-dark(rgb(0, 0, 0), rgb(255, 255, 255)); font-family: monospace;&quot;&gt;VARCHAR(255)&lt;/span&gt;&lt;/div&gt;&lt;div&gt;&lt;span style=&quot;background-color: transparent; color: light-dark(rgb(0, 0, 0), rgb(255, 255, 255));&quot;&gt;&amp;nbsp;&lt;/span&gt;&lt;span style=&quot;background-color: transparent; color: light-dark(rgb(0, 0, 0), rgb(255, 255, 255));&quot;&gt;IntNr :&amp;nbsp;&lt;/span&gt;&lt;span style=&quot;font-family: monospace; background-color: transparent; color: light-dark(rgb(0, 0, 0), rgb(255, 255, 255));&quot;&gt;INT&lt;/span&gt;&lt;/div&gt;&lt;div&gt;Beurteilung :&amp;nbsp;&lt;span style=&quot;font-family: monospace; background-color: transparent; color: light-dark(rgb(0, 0, 0), rgb(255, 255, 255));&quot;&gt;VARCHAR(100)&lt;/span&gt;&lt;br&gt;&lt;/div&gt;" style="text;strokeColor=none;fillColor=none;align=left;verticalAlign=top;spacingLeft=4;spacingRight=4;overflow=hidden;rotatable=0;points=[[0,0.5],[1,0.5]];portConstraint=eastwest;whiteSpace=wrap;html=1;" vertex="1" parent="s7BcbKGahoT11SLp1yV3-0">
          <mxGeometry y="72" width="180" height="110" as="geometry" />
        </mxCell>
        <mxCell id="s7BcbKGahoT11SLp1yV3-9" value="&amp;nbsp;C CD" style="swimlane;fontStyle=1;align=center;verticalAlign=top;childLayout=stackLayout;horizontal=1;startSize=26;horizontalStack=0;resizeParent=1;resizeParentMax=0;resizeLast=0;collapsible=1;marginBottom=0;whiteSpace=wrap;html=1;" vertex="1" parent="WIyWlLk6GJQsqaUBKTNV-1">
          <mxGeometry x="470" y="30" width="220" height="162" as="geometry" />
        </mxCell>
        <mxCell id="s7BcbKGahoT11SLp1yV3-10" value="FK:&amp;nbsp;InterpretNr (&lt;span style=&quot;font-weight: 700; text-align: center;&quot;&gt;&amp;nbsp;&lt;/span&gt;&lt;code style=&quot;font-weight: 700; text-align: center;&quot; data-end=&quot;180&quot; data-start=&quot;167&quot;&gt;Interpreten )&lt;/code&gt;&lt;div&gt;FK :&amp;nbsp;Musikrichtung (&lt;span style=&quot;font-family: monospace; font-weight: 700; text-align: center; background-color: transparent; color: light-dark(rgb(0, 0, 0), rgb(255, 255, 255));&quot;&gt;Musikrichtung)&lt;/span&gt;&lt;/div&gt;" style="text;strokeColor=none;fillColor=none;align=left;verticalAlign=top;spacingLeft=4;spacingRight=4;overflow=hidden;rotatable=0;points=[[0,0.5],[1,0.5]];portConstraint=eastwest;whiteSpace=wrap;html=1;" vertex="1" parent="s7BcbKGahoT11SLp1yV3-9">
          <mxGeometry y="26" width="220" height="48" as="geometry" />
        </mxCell>
        <mxCell id="s7BcbKGahoT11SLp1yV3-11" value="" style="line;strokeWidth=1;fillColor=none;align=left;verticalAlign=middle;spacingTop=-1;spacingLeft=3;spacingRight=3;rotatable=0;labelPosition=right;points=[];portConstraint=eastwest;strokeColor=inherit;" vertex="1" parent="s7BcbKGahoT11SLp1yV3-9">
          <mxGeometry y="74" width="220" height="8" as="geometry" />
        </mxCell>
        <mxCell id="s7BcbKGahoT11SLp1yV3-13" value="&lt;div&gt;&lt;span style=&quot;background-color: transparent; color: light-dark(rgb(0, 0, 0), rgb(255, 255, 255));&quot;&gt;CDNr&amp;nbsp; :&lt;/span&gt;&lt;span style=&quot;font-family: monospace; font-size: 11px; background-color: transparent; color: light-dark(rgb(0, 0, 0), rgb(255, 255, 255));&quot;&gt;INT &lt;/span&gt;&lt;span style=&quot;font-family: monospace; font-size: 11px; color: light-dark(rgb(0, 0, 0), rgb(255, 255, 255)); background-color: rgb(204, 204, 255);&quot;&gt;PRIMARY KEY&lt;/span&gt;&lt;br&gt;&lt;/div&gt;&lt;div&gt;CDName :&amp;nbsp;&lt;span style=&quot;font-family: monospace; background-color: transparent; color: light-dark(rgb(0, 0, 0), rgb(255, 255, 255));&quot;&gt;VARCHAR(255)&lt;/span&gt;&lt;/div&gt;&lt;div&gt;InterpretNr : &lt;font face=&quot;monospace&quot;&gt;INT&lt;/font&gt;&lt;span style=&quot;font-family: monospace; background-color: transparent; color: light-dark(rgb(0, 0, 0), rgb(255, 255, 255));&quot;&gt;&lt;br&gt;&lt;/span&gt;&lt;/div&gt;&lt;div&gt;Musikrichtung : &lt;font face=&quot;monospace&quot;&gt;INT&lt;/font&gt;&lt;b&gt;&lt;i&gt;&lt;br&gt;&lt;/i&gt;&lt;/b&gt;&lt;/div&gt;&lt;table&gt;&lt;tbody&gt;&lt;tr&gt;&lt;td&gt;&lt;/td&gt;&lt;/tr&gt;&lt;/tbody&gt;&lt;/table&gt;&lt;div&gt;&amp;nbsp;&lt;span style=&quot;font-family: monospace; font-size: 11px; background-color: transparent; color: light-dark(rgb(0, 0, 0), rgb(255, 255, 255));&quot;&gt;&lt;br&gt;&lt;/span&gt;&lt;/div&gt;&lt;table&gt;&lt;tbody&gt;&lt;tr&gt;&lt;td&gt;&lt;br&gt;&lt;br&gt;&lt;/td&gt;&lt;/tr&gt;&lt;/tbody&gt;&lt;/table&gt;&lt;div&gt;&lt;br&gt;&lt;/div&gt;&lt;div&gt;&lt;br&gt;&lt;/div&gt;" style="text;strokeColor=none;fillColor=none;align=left;verticalAlign=top;spacingLeft=4;spacingRight=4;overflow=hidden;rotatable=0;points=[[0,0.5],[1,0.5]];portConstraint=eastwest;whiteSpace=wrap;html=1;" vertex="1" parent="s7BcbKGahoT11SLp1yV3-9">
          <mxGeometry y="82" width="220" height="70" as="geometry" />
        </mxCell>
        <mxCell id="s7BcbKGahoT11SLp1yV3-12" value="&lt;span style=&quot;color: rgba(0, 0, 0, 0); font-family: monospace; font-size: 0px; text-wrap: nowrap;&quot;&gt;%3CmxGraphModel%3E%3Croot%3E%3CmxCell%20id%3D%220%22%2F%3E%3CmxCell%20id%3D%221%22%20parent%3D%220%22%2F%3E%3CmxCell%20id%3D%222%22%20value%3D%22%26lt%3Bdiv%26gt%3B%26lt%3Bspan%20style%3D%26quot%3Bbackground-color%3A%20transparent%3B%20color%3A%20light-dark(rgb(0%2C%200%2C%200)%2C%20rgb(255%2C%20255%2C%20255))%3B%26quot%3B%26gt%3BCDNr%26amp%3Bnbsp%3B%20%3A%26lt%3B%2Fspan%26gt%3B%26lt%3Bspan%20style%3D%26quot%3Bfont-family%3A%20monospace%3B%20font-size%3A%2011px%3B%20background-color%3A%20transparent%3B%20color%3A%20light-dark(rgb(0%2C%200%2C%200)%2C%20rgb(255%2C%20255%2C%20255))%3B%26quot%3B%26gt%3BINT%20PRIMARY%20KEY%26lt%3B%2Fspan%26gt%3B%26lt%3Bbr%26gt%3B%26lt%3B%2Fdiv%26gt%3B%26lt%3Bdiv%26gt%3BCDName%20%3A%26amp%3Bnbsp%3B%26lt%3Bspan%20style%3D%26quot%3Bfont-family%3A%20monospace%3B%20background-color%3A%20transparent%3B%20color%3A%20light-dark(rgb(0%2C%200%2C%200)%2C%20rgb(255%2C%20255%2C%20255))%3B%26quot%3B%26gt%3BVARCHAR(255)%26lt%3B%2Fspan%26gt%3B%26lt%3B%2Fdiv%26gt%3B%26lt%3Bdiv%26gt%3BInterpretNr%20%3A%20%26lt%3Bfont%20face%3D%26quot%3Bmonospace%26quot%3B%26gt%3BINT%26lt%3B%2Ffont%26gt%3B%26lt%3Bspan%20style%3D%26quot%3Bfont-family%3A%20monospace%3B%20background-color%3A%20transparent%3B%20color%3A%20light-dark(rgb(0%2C%200%2C%200)%2C%20rgb(255%2C%20255%2C%20255))%3B%26quot%3B%26gt%3B%26lt%3Bbr%26gt%3B%26lt%3B%2Fspan%26gt%3B%26lt%3B%2Fdiv%26gt%3B%26lt%3Bdiv%26gt%3BMusikrichtung%20%3A%20%26lt%3Bfont%20face%3D%26quot%3Bmonospace%26quot%3B%26gt%3BINT%26lt%3B%2Ffont%26gt%3B%26lt%3Bb%26gt%3B%26lt%3Bi%26gt%3B%26lt%3Bbr%26gt%3B%26lt%3B%2Fi%26gt%3B%26lt%3B%2Fb%26gt%3B%26lt%3B%2Fdiv%26gt%3B%26lt%3Btable%26gt%3B%26lt%3Btbody%26gt%3B%26lt%3Btr%26gt%3B%26lt%3Btd%26gt%3B%26lt%3B%2Ftd%26gt%3B%26lt%3B%2Ftr%26gt%3B%26lt%3B%2Ftbody%26gt%3B%26lt%3B%2Ftable%26gt%3B%26lt%3Bdiv%26gt%3B%26amp%3Bnbsp%3B%26lt%3Bspan%20style%3D%26quot%3Bfont-family%3A%20monospace%3B%20font-size%3A%2011px%3B%20background-color%3A%20transparent%3B%20color%3A%20light-dark(rgb(0%2C%200%2C%200)%2C%20rgb(255%2C%20255%2C%20255))%3B%26quot%3B%26gt%3B%26lt%3Bbr%26gt%3B%26lt%3B%2Fspan%26gt%3B%26lt%3B%2Fdiv%26gt%3B%26lt%3Btable%26gt%3B%26lt%3Btbody%26gt%3B%26lt%3Btr%26gt%3B%26lt%3Btd%26gt%3B%26lt%3Bbr%26gt%3B%26lt%3Bbr%26gt%3B%26lt%3B%2Ftd%26gt%3B%26lt%3B%2Ftr%26gt%3B%26lt%3B%2Ftbody%26gt%3B%26lt%3B%2Ftable%26gt%3B%26lt%3Bdiv%26gt%3B%26lt%3Bbr%26gt%3B%26lt%3B%2Fdiv%26gt%3B%26lt%3Bdiv%26gt%3B%26lt%3Bbr%26gt%3B%26lt%3B%2Fdiv%26gt%3B%22%20style%3D%22text%3BstrokeColor%3Dnone%3BfillColor%3Dnone%3Balign%3Dleft%3BverticalAlign%3Dtop%3BspacingLeft%3D4%3BspacingRight%3D4%3Boverflow%3Dhidden%3Brotatable%3D0%3Bpoints%3D%5B%5B0%2C0.5%5D%2C%5B1%2C0.5%5D%5D%3BportConstraint%3Deastwest%3BwhiteSpace%3Dwrap%3Bhtml%3D1%3B%22%20vertex%3D%221%22%20parent%3D%221%22%3E%3CmxGeometry%20x%3D%22414%22%20y%3D%22290%22%20width%3D%22170%22%20height%3D%2270%22%20as%3D%22geometry%22%2F%3E%3C%2FmxCell%3E%3C%2Froot%3E%3C%2FmxGraphModel%3E&lt;/span&gt;" style="text;strokeColor=none;fillColor=none;align=left;verticalAlign=top;spacingLeft=4;spacingRight=4;overflow=hidden;rotatable=0;points=[[0,0.5],[1,0.5]];portConstraint=eastwest;whiteSpace=wrap;html=1;" vertex="1" parent="s7BcbKGahoT11SLp1yV3-9">
          <mxGeometry y="152" width="220" height="10" as="geometry" />
        </mxCell>
        <mxCell id="s7BcbKGahoT11SLp1yV3-14" value="C&amp;nbsp;&lt;code data-end=&quot;180&quot; data-start=&quot;167&quot;&gt;Interpreten&lt;/code&gt;" style="swimlane;fontStyle=1;align=center;verticalAlign=top;childLayout=stackLayout;horizontal=1;startSize=26;horizontalStack=0;resizeParent=1;resizeParentMax=0;resizeLast=0;collapsible=1;marginBottom=0;whiteSpace=wrap;html=1;" vertex="1" parent="WIyWlLk6GJQsqaUBKTNV-1">
          <mxGeometry x="490" y="360" width="200" height="120" as="geometry" />
        </mxCell>
        <mxCell id="s7BcbKGahoT11SLp1yV3-15" value="FK:" style="text;strokeColor=none;fillColor=none;align=left;verticalAlign=top;spacingLeft=4;spacingRight=4;overflow=hidden;rotatable=0;points=[[0,0.5],[1,0.5]];portConstraint=eastwest;whiteSpace=wrap;html=1;" vertex="1" parent="s7BcbKGahoT11SLp1yV3-14">
          <mxGeometry y="26" width="200" height="26" as="geometry" />
        </mxCell>
        <mxCell id="s7BcbKGahoT11SLp1yV3-16" value="" style="line;strokeWidth=1;fillColor=none;align=left;verticalAlign=middle;spacingTop=-1;spacingLeft=3;spacingRight=3;rotatable=0;labelPosition=right;points=[];portConstraint=eastwest;strokeColor=inherit;" vertex="1" parent="s7BcbKGahoT11SLp1yV3-14">
          <mxGeometry y="52" width="200" height="8" as="geometry" />
        </mxCell>
        <mxCell id="s7BcbKGahoT11SLp1yV3-17" value="InterpretID :&amp;nbsp;&lt;span style=&quot;font-family: monospace;&quot;&gt;INT &lt;span style=&quot;background-color: rgb(204, 204, 255);&quot;&gt;PRIMARY KEY&lt;/span&gt;&lt;/span&gt;&lt;div&gt;Interpret :&amp;nbsp;&lt;span style=&quot;font-family: monospace;&quot;&gt;VARCHAR(255)&lt;/span&gt;&lt;/div&gt;&lt;div&gt;&lt;font face=&quot;monospace&quot;&gt;&lt;br&gt;&lt;/font&gt;&lt;table&gt;&lt;tbody&gt;&lt;tr&gt;&lt;td&gt;&lt;/td&gt;&lt;/tr&gt;&lt;/tbody&gt;&lt;/table&gt;&lt;table&gt;&lt;tbody&gt;&lt;tr&gt;&lt;td&gt;&lt;/td&gt;&lt;/tr&gt;&lt;/tbody&gt;&lt;/table&gt;&lt;/div&gt;" style="text;strokeColor=none;fillColor=none;align=left;verticalAlign=top;spacingLeft=4;spacingRight=4;overflow=hidden;rotatable=0;points=[[0,0.5],[1,0.5]];portConstraint=eastwest;whiteSpace=wrap;html=1;" vertex="1" parent="s7BcbKGahoT11SLp1yV3-14">
          <mxGeometry y="60" width="200" height="60" as="geometry" />
        </mxCell>
        <mxCell id="s7BcbKGahoT11SLp1yV3-50" style="edgeStyle=orthogonalEdgeStyle;rounded=0;orthogonalLoop=1;jettySize=auto;html=1;" edge="1" parent="WIyWlLk6GJQsqaUBKTNV-1" source="s7BcbKGahoT11SLp1yV3-18" target="s7BcbKGahoT11SLp1yV3-10">
          <mxGeometry relative="1" as="geometry" />
        </mxCell>
        <mxCell id="s7BcbKGahoT11SLp1yV3-51" value="1" style="edgeLabel;html=1;align=center;verticalAlign=middle;resizable=0;points=[];" vertex="1" connectable="0" parent="s7BcbKGahoT11SLp1yV3-50">
          <mxGeometry x="-0.877" y="-1" relative="1" as="geometry">
            <mxPoint as="offset" />
          </mxGeometry>
        </mxCell>
        <mxCell id="s7BcbKGahoT11SLp1yV3-52" value="1...*" style="edgeLabel;html=1;align=center;verticalAlign=middle;resizable=0;points=[];" vertex="1" connectable="0" parent="s7BcbKGahoT11SLp1yV3-50">
          <mxGeometry x="0.8489" y="2" relative="1" as="geometry">
            <mxPoint as="offset" />
          </mxGeometry>
        </mxCell>
        <mxCell id="s7BcbKGahoT11SLp1yV3-18" value="C&amp;nbsp;&lt;code data-end=&quot;470&quot; data-start=&quot;455&quot;&gt;Musikrichtung&lt;/code&gt;" style="swimlane;fontStyle=1;align=center;verticalAlign=top;childLayout=stackLayout;horizontal=1;startSize=26;horizontalStack=0;resizeParent=1;resizeParentMax=0;resizeLast=0;collapsible=1;marginBottom=0;whiteSpace=wrap;html=1;" vertex="1" parent="WIyWlLk6GJQsqaUBKTNV-1">
          <mxGeometry x="70" y="15" width="180" height="130" as="geometry" />
        </mxCell>
        <mxCell id="s7BcbKGahoT11SLp1yV3-19" value="FK :&amp;nbsp;" style="text;strokeColor=none;fillColor=none;align=left;verticalAlign=top;spacingLeft=4;spacingRight=4;overflow=hidden;rotatable=0;points=[[0,0.5],[1,0.5]];portConstraint=eastwest;whiteSpace=wrap;html=1;" vertex="1" parent="s7BcbKGahoT11SLp1yV3-18">
          <mxGeometry y="26" width="180" height="26" as="geometry" />
        </mxCell>
        <mxCell id="s7BcbKGahoT11SLp1yV3-20" value="" style="line;strokeWidth=1;fillColor=none;align=left;verticalAlign=middle;spacingTop=-1;spacingLeft=3;spacingRight=3;rotatable=0;labelPosition=right;points=[];portConstraint=eastwest;strokeColor=inherit;" vertex="1" parent="s7BcbKGahoT11SLp1yV3-18">
          <mxGeometry y="52" width="180" height="8" as="geometry" />
        </mxCell>
        <mxCell id="s7BcbKGahoT11SLp1yV3-21" value="MRID :&amp;nbsp;&lt;span style=&quot;font-family: monospace;&quot;&gt;INT &lt;span style=&quot;background-color: rgb(204, 204, 255);&quot;&gt;PRIMARY KEY&lt;/span&gt;&lt;/span&gt;&lt;div&gt;Musikrichtung&amp;nbsp;&lt;span style=&quot;background-color: transparent; color: light-dark(rgb(0, 0, 0), rgb(255, 255, 255));&quot;&gt;:&amp;nbsp;&lt;/span&gt;&lt;span style=&quot;background-color: transparent; color: light-dark(rgb(0, 0, 0), rgb(255, 255, 255)); font-family: monospace;&quot;&gt;VARCHAR(255)&lt;/span&gt;&lt;span style=&quot;font-family: monospace;&quot;&gt;&lt;br&gt;&lt;/span&gt;&lt;/div&gt;" style="text;strokeColor=none;fillColor=none;align=left;verticalAlign=top;spacingLeft=4;spacingRight=4;overflow=hidden;rotatable=0;points=[[0,0.5],[1,0.5]];portConstraint=eastwest;whiteSpace=wrap;html=1;" vertex="1" parent="s7BcbKGahoT11SLp1yV3-18">
          <mxGeometry y="60" width="180" height="70" as="geometry" />
        </mxCell>
        <mxCell id="s7BcbKGahoT11SLp1yV3-46" style="edgeStyle=orthogonalEdgeStyle;rounded=0;orthogonalLoop=1;jettySize=auto;html=1;entryX=0.529;entryY=0.95;entryDx=0;entryDy=0;entryPerimeter=0;" edge="1" parent="WIyWlLk6GJQsqaUBKTNV-1" source="s7BcbKGahoT11SLp1yV3-14" target="s7BcbKGahoT11SLp1yV3-12">
          <mxGeometry relative="1" as="geometry">
            <Array as="points">
              <mxPoint x="586" y="320" />
              <mxPoint x="586" y="320" />
            </Array>
          </mxGeometry>
        </mxCell>
        <mxCell id="s7BcbKGahoT11SLp1yV3-47" value="1" style="edgeLabel;html=1;align=center;verticalAlign=middle;resizable=0;points=[];" vertex="1" connectable="0" parent="s7BcbKGahoT11SLp1yV3-46">
          <mxGeometry x="-0.8516" relative="1" as="geometry">
            <mxPoint as="offset" />
          </mxGeometry>
        </mxCell>
        <mxCell id="s7BcbKGahoT11SLp1yV3-48" value="1...*" style="edgeLabel;html=1;align=center;verticalAlign=middle;resizable=0;points=[];" vertex="1" connectable="0" parent="s7BcbKGahoT11SLp1yV3-46">
          <mxGeometry x="0.7607" y="-1" relative="1" as="geometry">
            <mxPoint as="offset" />
          </mxGeometry>
        </mxCell>
        <mxCell id="s7BcbKGahoT11SLp1yV3-53" style="edgeStyle=orthogonalEdgeStyle;rounded=0;orthogonalLoop=1;jettySize=auto;html=1;entryX=1.017;entryY=0.317;entryDx=0;entryDy=0;entryPerimeter=0;" edge="1" parent="WIyWlLk6GJQsqaUBKTNV-1" source="s7BcbKGahoT11SLp1yV3-11" target="s7BcbKGahoT11SLp1yV3-3">
          <mxGeometry relative="1" as="geometry" />
        </mxCell>
        <mxCell id="s7BcbKGahoT11SLp1yV3-54" value="1" style="edgeLabel;html=1;align=center;verticalAlign=middle;resizable=0;points=[];" vertex="1" connectable="0" parent="s7BcbKGahoT11SLp1yV3-53">
          <mxGeometry x="-0.9427" y="-1" relative="1" as="geometry">
            <mxPoint as="offset" />
          </mxGeometry>
        </mxCell>
        <mxCell id="s7BcbKGahoT11SLp1yV3-55" value="1...*" style="edgeLabel;html=1;align=center;verticalAlign=middle;resizable=0;points=[];" vertex="1" connectable="0" parent="s7BcbKGahoT11SLp1yV3-53">
          <mxGeometry x="0.9212" y="2" relative="1" as="geometry">
            <mxPoint as="offset" />
          </mxGeometry>
        </mxCell>
        <mxCell id="s7BcbKGahoT11SLp1yV3-56" style="edgeStyle=orthogonalEdgeStyle;rounded=0;orthogonalLoop=1;jettySize=auto;html=1;" edge="1" parent="WIyWlLk6GJQsqaUBKTNV-1" source="s7BcbKGahoT11SLp1yV3-15" target="s7BcbKGahoT11SLp1yV3-3">
          <mxGeometry relative="1" as="geometry" />
        </mxCell>
        <mxCell id="s7BcbKGahoT11SLp1yV3-57" value="1" style="edgeLabel;html=1;align=center;verticalAlign=middle;resizable=0;points=[];" vertex="1" connectable="0" parent="s7BcbKGahoT11SLp1yV3-56">
          <mxGeometry x="-0.8976" relative="1" as="geometry">
            <mxPoint as="offset" />
          </mxGeometry>
        </mxCell>
        <mxCell id="s7BcbKGahoT11SLp1yV3-58" value="1...*" style="edgeLabel;html=1;align=center;verticalAlign=middle;resizable=0;points=[];" vertex="1" connectable="0" parent="s7BcbKGahoT11SLp1yV3-56">
          <mxGeometry x="0.8313" relative="1" as="geometry">
            <mxPoint as="offset" />
          </mxGeometry>
        </mxCell>
      </root>
    </mxGraphModel>
  </diagram>
</mxfile>
